<svg width="25" height="25" viewBox="0 0 25 25" fill="none" xmlns="http://www.w3.org/2000/svg">
<path d="M22 2H4C3.37485 2 3.44205 2.55795 3 3C2.55795 3.44205 2 3.37485 2 4V22C2 22.6252 2.55795 22.5579 3 23C3.44205 23.4421 3.37485 24 4 24H11V17H8V13H11V10C11 6.94799 13.2171 6 16 6C17.3328 6 18 6 18 6V9H17C15.487 9 15 10.037 15 11V13H18V17H15V24H22C22.6252 24 22.5579 23.4421 23 23C23.4421 22.5579 24 22.6252 24 22V4C24 3.37485 23.4421 3.44205 23 3C22.5579 2.55795 22.6252 2 22 2Z" fill="#F31414"/>
</svg>
