<svg width="25" height="25" viewBox="0 0 25 25" fill="none" xmlns="http://www.w3.org/2000/svg">
<path d="M12 0C5.22435 0 0 5.30101 0 11.9772C0 15.4691 1.66 17.8774 4 19.962C4.40403 20.3247 3.93129 20.7167 4 22.9563C4.00541 23.1131 3.92167 23.8182 4 23.9544C4.07833 24.0905 4.86696 23.8707 5 23.9544C5.13304 24.038 4.84319 23.9425 5 23.9544C5.15681 23.9662 5.85589 24.0172 6 23.9544C8.56016 22.829 8.56597 22.8384 9 22.9563C16.4173 24.9939 24 20.4355 24 11.9772C24 5.30101 18.7761 0 12 0ZM19 8.98288L16 14.9715C15.8666 15.1814 15.2064 14.8324 15 14.9715C14.7936 15.1105 15.2449 14.9264 15 14.9715C14.7551 15.0165 14.2425 15.028 14 14.9715C13.7575 14.9149 13.1996 15.1201 13 14.9715L10 12.9753C9.87437 12.8812 10.157 12.9753 10 12.9753C9.84296 12.9753 9.12563 12.8812 9 12.9753L6 15.9696C5.49387 16.3526 4.65887 15.5061 5 14.9715L8 8.98288C8.13334 8.77293 8.79362 9.122 9 8.98288C9.20638 8.84376 9.75508 9.02791 10 8.98288C10.2449 8.93785 9.7575 8.92629 10 8.98288C10.2425 9.03947 10.8005 8.83413 11 8.98288L14 10.9791C14.1256 11.0731 13.843 10.9791 14 10.9791C14.157 10.9791 14.8744 11.0731 15 10.9791L18 7.98478C18.5052 7.59937 19.3411 8.44775 19 8.98288Z" fill="#F31414"/>
</svg>
