<svg width="25" height="25" viewBox="0 0 25 25" fill="none" xmlns="http://www.w3.org/2000/svg">
<path d="M12.9992 7.00017C9.8777 7.00017 6.99918 9.878 6.99918 13.0002C6.99918 16.1223 9.8777 19.0002 12.9992 19.0002C16.1206 19.0002 18.9992 16.1223 18.9992 13.0002C18.9992 9.878 16.1206 7.00017 12.9992 7.00017ZM12.9992 17.0002C10.982 17.0002 8.99918 15.0227 8.99918 13.0002C8.99918 10.9776 10.9771 9.00017 12.9992 9.00017C15.0213 9.00017 16.9992 10.9776 16.9992 13.0002C16.9992 15.0227 15.0164 17.0002 12.9992 17.0002ZM19.9992 7.00017C19.9992 7.73162 19.7256 8.00017 18.9992 8.00017C18.2679 8.00017 17.9992 7.72671 17.9992 7.00017C17.9992 6.27363 18.2728 6.00017 18.9992 6.00017C19.7256 6.00017 19.9992 6.27363 19.9992 7.00017ZM23.9992 8.00017C23.9157 6.23781 23.29 5.28635 21.9992 4.00017C20.7133 2.71399 19.7611 2.08853 17.9992 2.00017C16.1832 1.89708 9.81513 1.89708 7.99918 2.00017C6.24212 2.08362 5.28997 2.71399 3.99918 4.00017C2.70838 5.28635 2.08752 6.23781 1.99918 8.00017C1.89611 9.81653 1.89611 16.1838 1.99918 18.0002C2.08261 19.7625 2.70838 20.714 3.99918 22.0002C5.28997 23.2863 6.23721 23.9118 7.99918 24.0002C9.81513 24.1033 16.1832 24.1033 17.9992 24.0002C19.7611 23.9167 20.7133 23.2913 21.9992 22.0002C23.2851 20.714 23.9108 19.7625 23.9992 18.0002C24.1022 16.1838 24.1022 9.81653 23.9992 8.00017ZM21.9992 19.0002C21.6164 19.9623 19.966 21.6124 18.9992 22.0002C17.5513 22.5745 14.5992 22.0002 12.9992 22.0002C11.3992 22.0002 8.44212 22.5696 6.99918 22.0002C6.03721 21.6173 4.38691 19.9673 3.99918 19.0002C3.42494 17.552 3.99918 14.6005 3.99918 13.0002C3.99918 11.3998 3.42985 8.44344 3.99918 7.00017C4.382 6.03799 6.0323 4.38799 6.99918 4.00017C8.44703 3.42581 11.3992 4.00017 12.9992 4.00017C14.5992 4.00017 17.5562 3.43072 18.9992 4.00017C19.9611 4.38308 21.6114 6.03308 21.9992 7.00017C22.5734 8.44835 21.9992 11.3998 21.9992 13.0002C21.9992 14.6005 22.5734 17.5569 21.9992 19.0002Z" fill="#F31414"/>
</svg>
